<svg xmlns="http://www.w3.org/2000/svg" width="22" height="20" fill="none"><path stroke="#0094DB" stroke-linecap="round" stroke-linejoin="round" stroke-width="1.109" d="M10.973 14.285c2.386 0 4.32-1.844 4.32-4.12 0-2.274-1.934-4.118-4.32-4.118-2.385 0-4.32 1.844-4.32 4.119 0 2.275 1.935 4.119 4.32 4.119Z"/><path stroke="#0094DB" stroke-width="1.109" d="M1.254 14.285V6.047C1.254 3.204 3.672.9 6.654.9h8.64c2.981 0 5.399 2.305 5.399 5.148v8.238c0 2.843-2.418 5.148-5.4 5.148h-8.64c-2.981 0-5.399-2.305-5.399-5.148Z"/><path stroke="#0094DB" stroke-linecap="round" stroke-linejoin="round" stroke-width="1.109" d="m16.913 4.513.01-.012"/></svg>
