<svg id="Layer_1" data-name="Layer 1" xmlns="http://www.w3.org/2000/svg" viewBox="0 0 529.47 595.28"><defs><style>.cls-1{fill:#228b22;}.cls-2{fill:#df0023;}.cls-3{fill:#fff;}</style></defs><title>certification</title><path d="M67.65,193.2c1.35.16,3.29.38,4.32.43a45.26,45.26,0,0,1,.11,9.48c-.27,2.37-1,6.58-2.87,9.46-2.84,4.33-7.27,6.52-11.83,6A13.06,13.06,0,0,1,47,211.51a18.65,18.65,0,0,1-1.71-11.07,34.09,34.09,0,0,1,1.87-8.07c-.57-.21-2.57-.85-3.32-1.05l-.09-.86A100.76,100.76,0,0,0,55,192.28l-.53.79a31.78,31.78,0,0,0-3.41,0c-1.24.82-4,3.13-4.64,9.08A10.31,10.31,0,0,0,55.73,214c6,.7,14.17-3.49,15.08-11.37a11.09,11.09,0,0,0-.41-4.74,34.15,34.15,0,0,0-3.6-.53l-1.93-.23a20.4,20.4,0,0,0-2.94-.19c-.15.72-.6,3-.83,3.64l-.79.13c.29-1.89.66-4.7.81-6,.2-1.76.58-5.3.56-5.75l.74.27c0,.34-.06,2.4,0,3.22.61.19,3,.5,4,.62Z"/><path d="M60.11,181.61c-2-.56-7.44-2.05-8.6-2.22-.35.73-1.21,2.71-1.54,3.61l-.76-.11c.31-.85,1.24-3.88,1.84-6,.66-2.35,1.54-5.77,1.67-6.49l.68.39c-.16.86-.41,2.83-.67,4.26,1.08.46,6.12,1.91,8.92,2.7l1.26.35c4.58,1.29,11.32,3.14,12.12,3.22,1.17-4.17,1.07-7.3.57-8.87A34.43,34.43,0,0,0,72,170.06l.1-.88a103.73,103.73,0,0,0,11,5.09l-.4.75c-.49-.13-3.1-1.06-4-1.32-.29.75-2.55,8.27-3.08,10.16s-1.33,5-1.53,6l-.7-.34a27.19,27.19,0,0,0,.55-3.85c-1.5-.58-8.25-2.51-11.71-3.48Z"/><path d="M77.68,166.29a11.66,11.66,0,0,1-9.62-.17c-6.76-2.82-10.59-11-6.66-20.37,1.51-3.62,3.29-6.24,6.71-8.3a11.46,11.46,0,0,1,10.19-.6c8.36,3.49,11.11,12.09,7.61,20.48C84.47,160.78,82.25,164.46,77.68,166.29Zm1.37-24.24c-7.23-3-14.51-.16-16.88,5.5-2,4.68-.94,11.11,6.09,14,6.11,2.55,14.17.14,16.94-6.51C87.24,150.19,84.52,144.33,79.05,142.05Z"/><path d="M82.41,130.93c-2.21-1.46-7.06-4.53-8.4-5.23a37.9,37.9,0,0,0-2.39,3l-.74-.27c.63-1,4.28-7,5.56-9,3.94-6,7.1-5.22,8.54-4.27a5.51,5.51,0,0,1,2.36,2.7,10.61,10.61,0,0,1,.58,6.06l.1.06c2.49-2.71,6.81-4.53,10.07-2.38,3.53,2.32,4,6.77,1.17,11-.28.43-1,1.44-1.82,2.5s-1.58,2.13-2,2.78-2.43,3.81-3,4.74l-.56-.55a33.48,33.48,0,0,0,1.68-3.47c-2-1.61-6.55-4.63-9.26-6.41Zm2.89-2.85a7.73,7.73,0,0,0,1.39-4.38,5.71,5.71,0,0,0-2.7-4.33c-2.64-1.74-5.49-1.28-7.15,1.23a4,4,0,0,0-.62,1.35c.26.27,4.6,3.17,7.36,5Zm2.58,1.7a84.54,84.54,0,0,0,7.86,4.65,5.79,5.79,0,0,0,2.26-2c1.92-2.92,1.11-5.22-1-6.62a7.8,7.8,0,0,0-7.64-.23,8.8,8.8,0,0,0-3.13,3.13Z"/><path d="M113.85,112.21a28.25,28.25,0,0,0,2.07-3.19c-1.9-.76-9.61-3.93-10.82-4.19-.85,1-4.53,5.64-5.27,6.83a88.43,88.43,0,0,0,6.19,8.81,22.43,22.43,0,0,0,2.49-2.09l.69.4c-.81.83-3.09,3.35-3.8,4.16s-2.21,2.67-2.72,3.37l-.52-.6a27.14,27.14,0,0,0,1.71-2.76c-.9-2.55-11.21-21.29-11.94-22.61a23.41,23.41,0,0,0-2.29,1.91l-.62-.49c.79-.79,2.87-3.09,3.29-3.56,1-1.19,3.4-4.06,4-4.92l.52.6a20.06,20.06,0,0,0-1.48,2.46c1.53.73,7.3,3,11.18,4.5a129.19,129.19,0,0,0,12.71,4.29c.88-.67,1.7-1.39,2.54-2.14l.67.43c-.35.29-2.87,3.09-4.17,4.58-.7.82-3.4,4-4,4.86ZM93.17,99.88l0,.06c1.75,3,5,9.09,5.73,10.18l5.23-5.82C101.69,103.31,95.13,100.74,93.17,99.88Z"/><path d="M113.22,90.49c-1.43-1.53-5.33-5.67-6.24-6.43-.7.44-2.48,1.7-3.23,2.3l-.61-.49c.72-.57,3.11-2.7,4.75-4.23,1.8-1.67,4.36-4.16,4.85-4.71l.39.69c-.6.65-1.85,2.22-2.82,3.33.69,1,4.27,4.86,6.28,7l.9,1c3.28,3.52,8.12,8.66,8.78,9.15,3.2-3,4.75-5.74,5.15-7.36a36.93,36.93,0,0,0-1.89-4l.54-.71a104.19,104.19,0,0,0,6.82,10.17l-.74.44c-.35-.38-2.12-2.54-2.8-3.27-.64.5-6.55,5.8-8,7.15s-3.77,3.62-4.47,4.37l-.42-.66a27.27,27.27,0,0,0,2.5-3c-1-1.28-5.8-6.49-8.28-9.15Z"/><path d="M151,57.87a26.07,26.07,0,0,0-1.9-2.4c-1.49-.94-5.81-1.2-9.73,1.49-5.53,3.78-6.27,10.17-3,14.91a13.43,13.43,0,0,0,18.77,3.2,17.56,17.56,0,0,0,6.08-6.56l.46,1.59c-.3,1.06-2.51,4.4-7.28,7.66a20.71,20.71,0,0,1-7.81,3.38c-5.28.76-10-1.1-12.64-5a13,13,0,0,1-1.42-12.36,18.09,18.09,0,0,1,7.33-8.71,34.05,34.05,0,0,1,6.88-3.55c-.08-.52-1.05-2.71-1.21-3.14l.6-.63a90.73,90.73,0,0,0,5.75,9.84Z"/><path d="M163.86,66.43a11.73,11.73,0,0,1-7.08-6.61c-3.16-6.66-.54-15.31,8.75-19.71,3.56-1.69,6.66-2.45,10.6-1.68a11.52,11.52,0,0,1,8,6.41c3.9,8.24.16,16.52-8.12,20.43C172.64,66.88,168.5,68.14,163.86,66.43Zm17.35-17.19c-3.38-7.13-10.74-9.9-16.32-7.26-4.61,2.18-8.19,7.66-4.92,14.59,2.85,6,10.5,9.65,17.06,6.55C181.84,60.84,183.76,54.62,181.21,49.24Z"/><path d="M214.32,48.61c.48-.19,3.05-1.33,3.72-1.62-.47-1.27-8.39-16.08-9.61-18.54l-.14,0c-.29,2.43-2,21.37-2.41,23.69-1.65-1.87-13.64-17.3-14.48-18.5l-.14,0c.75,5.63,1.7,16,3.24,20.48.67-.06,2.72-.38,3.27-.48l.36.7c-.51.08-4.59,1.27-5.26,1.47-.94.29-2.71.92-3.84,1.34l0-.81c.56-.29,1.64-.77,2.34-1.22.09-2.45-1.45-20.92-1.81-23.95-1,.15-3.21.53-3.62.58l-.44-.67c.48-.07,3.23-.85,5.09-1.42,1.5-.47,4.25-1.39,5.2-1.77l.09.78c-1,.41-1.85,1-2.47,1.3,2,2.87,9.82,13,11.73,15.32.39-2.31,2-18.67,1.78-19.5a15.72,15.72,0,0,0-2.53.25l-.4-.68c1.14-.28,3.54-.95,4.77-1.33s4-1.33,4.82-1.65l.12.77c-.47.22-2.11,1-2.79,1.4,1.88,3.72,10.23,18.9,11.5,20.92.94-.06,2.4-.32,3.06-.41l.4.68c-1.21.3-3.33.88-5,1.39s-5.43,1.76-6.43,2.14Z"/><path d="M232.21,31c.37,3.08,1.42,11.44,1.7,12.47.88,0,3.52,0,4.66,0l.27.74c-1.2.07-5.27.49-6.94.69s-5.24.71-6.24.91l.05-.78c.53-.14,2.86-.68,3.78-1-.05-1.61-1-9.33-1.36-12.7L228,29.86c-.14-1.16-1-7.75-1.27-9a25.57,25.57,0,0,0-3.93,0l-.21-.75,8-1c3.95-.48,7-.52,8.86,0,3.39.95,4,3.12,4.09,4a8,8,0,0,1-1.8,6.06c-2.1,2.68-5.9,4.13-7.18,4.47v-.91A7,7,0,0,0,239.38,25a5.36,5.36,0,0,0-3.53-4.58,12.07,12.07,0,0,0-4.77-.23c0,1.07.56,6.22.94,9.34Z"/><path d="M250.26,27.19c-.11-2.09-.42-7.75-.63-8.91-.81-.11-3-.29-3.93-.32l-.15-.76c.92,0,4.1-.06,6.33-.17,2.44-.12,6-.37,6.71-.48l-.14.78c-.88.11-2.84.5-4.29.72-.09,1.18.14,6.44.29,9.37l.06,1.31c.24,4.79.63,11.8.82,12.6,4.34-.22,7.29-1.32,8.64-2.3a37,37,0,0,0,1.1-4.23l.87-.19a100.66,100.66,0,0,0-1.33,12.11l-.85-.14c0-.51,0-3.3,0-4.28-.8,0-8.7.21-10.67.31s-5.19.33-6.21.46l.11-.78a27,27,0,0,0,3.85-.7c.06-1.62-.25-8.67-.43-12.29Z"/><path d="M275.51,29.87c-.19,4.76-.4,10.88-.28,11.62.9.25,3.09.56,3.82.67l.16.77c-.81-.1-4.61-.33-6.89-.42-1.24,0-4.62-.11-5.72-.08l.18-.77c.62,0,3.13-.24,3.9-.35.21-1.54.52-8.31.67-11.9l.08-2.17c.05-1.2.29-8.06.19-9.31-.72-.17-3.13-.57-3.82-.67l-.16-.78c.7.11,4.06.31,7,.43,1.87.08,5,.13,5.65.08l-.22.76c-.73.05-2.54.27-3.86.36-.18.73-.39,5-.57,9.48Z"/><path d="M295,44a27.91,27.91,0,0,0,3.75.06c-.36-2-1.76-10.11-2.18-11.26-1.27-.19-7.1-.83-8.48-.82a88.53,88.53,0,0,0-4.12,9.8,19.58,19.58,0,0,0,3.06,1l0,.79c-1.11-.25-4.41-.83-5.47-1s-3.4-.45-4.25-.5l.23-.75a28.53,28.53,0,0,0,3.21,0c1.66-2.09,11.92-20.56,12.64-21.87a24.13,24.13,0,0,0-2.8-.91l.08-.77c1.08.24,4.09.77,4.71.87,1.53.23,5.18.72,6.24.81l-.22.75a20.43,20.43,0,0,0-2.84,0c.19,1.67,1.31,7.69,2.11,11.72a125.36,125.36,0,0,0,3.09,12.89c1,.38,2,.69,3.12,1v.78c-.42-.14-4.09-.78-6-1.08-1.05-.16-5.18-.72-6.17-.79Zm-.56-23.79h-.07c-1.63,3.07-5,9-5.51,10.15l7.62,1.32C296.06,29.14,294.76,22.31,294.45,20.21Z"/><path d="M311.76,21.13c2,.54,5.28,1.53,8.05,2.24.4,1.43,4.7,12.44,5.1,13.26.61,1.26,4.07,9.75,4.9,11,1.21-3.88,5-16.18,4.86-18.22-.66-.36-2.43-1.22-3.39-1.59l.06-.79c.64.28,4.4,1.52,5.17,1.76s3.7,1.07,4.46,1.23l-.37.69c-.48-.07-1.83-.18-2.82-.33-.84,1.23-2.55,6.11-3,7.21-.62,1.61-5.47,16.23-6.11,17.57-.75-1.31-6.93-15.63-7.45-16.79-.33-.68-4.46-10.87-5.2-12.56-.32.67-5.62,19.18-5.55,20.58.47.34,3,1.4,3.66,1.68l-.12.76c-.61-.26-4.23-1.46-5.14-1.75s-3.77-1.09-4.81-1.34l.34-.7a21,21,0,0,0,3.06.41c1.05-1.28,7.54-20.8,7.9-22a34.11,34.11,0,0,0-3.72-1.62Z"/><path d="M364.35,50.06a28.44,28.44,0,0,0,1.11-2.86c.06-1.77-1.91-5.63-6.2-7.66-6.07-2.87-12-.28-14.43,4.91a13.45,13.45,0,0,0,6.72,17.86,17.61,17.61,0,0,0,8.74,1.93l-1.14,1.21c-1.07.27-5.08,0-10.31-2.43A20.87,20.87,0,0,1,342,58c-3.32-4.18-4.09-9.19-2.07-13.45a13,13,0,0,1,10-7.47A18,18,0,0,1,361.11,39a34.33,34.33,0,0,1,6.55,4.15c.4-.34,1.81-2.28,2.1-2.63l.85.19a90.22,90.22,0,0,0-5.6,9.95Z"/><path d="M370.07,57.92c1.88-2.78,5.1-7.76,5.62-8.8-.5-.52-2.24-2-2.92-2.6l.31-.74,2.72,2c1,.69,2,1.41,2.7,1.87,1,.66,8.26,5.56,9.24,5.91A14.49,14.49,0,0,0,389,54.24l.79.36c-.59.54-4.22,5.06-4.93,6l-.53-.67c.14-.22,1.11-1.59,1.49-2.23,0-1.27-4.44-4.88-6.08-6-.38.37-4.53,6.26-5.76,8.08l-.41.62a36.89,36.89,0,0,0,6.73,3.82,9.38,9.38,0,0,0,1.21-1.12l.69.37c-.47.5-3.88,4.36-4.71,5.24l-.42-.64c.47-.63,1-1.41,1.46-2-.62-1.14-2.91-3-5.57-4.74l-.42.61c-1.27,1.89-5.69,8.71-6.2,9.67,3.09,2.09,6.17,3.8,8.13,4,1.07-.85,1.87-1.7,2.52-2.26l.83.3c-.82.75-4.67,5-5.83,6.45l-.57-.56c.56-.84.94-1.39,1.24-1.91-.79-.76-7.57-5.51-9.52-6.82-1.05-.71-3.54-2.29-4.78-3l.59-.54a28.33,28.33,0,0,0,3.48,1.71c.49-.47,4.42-6.1,6.71-9.5Z"/><path d="M412.56,87.18a29,29,0,0,0,1.94-2.35c.61-1.65,0-5.91-3.44-9.17-4.82-4.61-11.21-4-15.16.1a13.38,13.38,0,0,0,.73,18.95,17.52,17.52,0,0,0,7.64,4.57l-1.45.78c-1.1-.08-4.81-1.55-9-5.53a20.66,20.66,0,0,1-4.9-6.91c-1.82-5-1-10,2.27-13.34A12.92,12.92,0,0,1,403,70.37a18,18,0,0,1,10,5.35,33.93,33.93,0,0,1,4.87,6c.49-.19,2.43-1.58,2.81-1.83l.73.45A91.81,91.81,0,0,0,413,88Z"/><path d="M416.5,96.19c2.48-2.16,6.81-6,7.57-6.91-.35-.62-1.62-2.47-2.11-3.21l.48-.61c.55.69,1.32,1.62,2.08,2.56s1.56,1.85,2.08,2.45c.77.89,6.4,7.38,7.25,8a14.75,14.75,0,0,0,1.49-.9l.66.54c-.7.36-5.3,3.72-6.2,4.41l-.34-.78c.19-.17,1.47-1.22,2-1.72.37-1.2-3-5.77-4.23-7.23-.46.25-5.89,4.77-7.52,6.18l-.55.48a36.64,36.64,0,0,0,5.4,5.34A8.74,8.74,0,0,0,426,104l.56.53c-.57.35-4.79,3.13-5.79,3.76l-.24-.71c.61-.48,1.35-1.07,1.9-1.55-.3-1.25-2-3.54-4.07-5.92l-.55.48c-1.68,1.46-7.62,6.8-8.34,7.58,2.39,2.76,4.87,5.17,6.69,5.81,1.23-.53,2.21-1.13,3-1.5l.72.5c-1,.5-5.7,3.53-7.18,4.62l-.39-.67c.74-.65,1.24-1.08,1.66-1.49-.56-.93-5.77-7.16-7.28-8.9-.82-.94-2.77-3.08-3.76-4.11l.71-.36a29.11,29.11,0,0,0,2.85,2.51c.59-.32,5.75-4.65,8.79-7.29Z"/><path d="M432.3,113.17c1.09-.74,6.86-4.68,7.36-5.19-.23-.6-1.44-2.77-1.82-3.48l.57-.51,4.43,6.49c1.94,2.87,4.34,6.48,4.91,9.09a4.36,4.36,0,0,1-1.69,4.92c-1.9,1.28-5.71,1-8.58-.4-.53.84-5.15,11-6.35,16.42L430,139.33c-.46-2.77,3.38-17.06,3.69-18-.87-1.08-1.8-2.26-2.14-2.77l-.79.53c-2,1.32-6.57,4.52-7.89,5.55a35.78,35.78,0,0,0,1.72,3.46l-.56.54c-.44-.79-2.44-3.88-3.38-5.27s-3-4.36-3.57-5l.72-.31A31.3,31.3,0,0,0,420.4,121c1-.47,6.89-4.44,10.06-6.58Zm.2,4.78a12.7,12.7,0,0,0,3.07,3.3,6.13,6.13,0,0,0,7.18.16c1.93-1.31,3.1-4.65-.42-9.87-1.3.74-6.75,4.33-8.89,5.78Z"/><path d="M449.52,140.37c2.41-1.29,7.21-4,7.91-4.45-2.8-5.22-4.88-7.14-5.9-7.72a26.15,26.15,0,0,0-3.42,1l-.6-.64c1.63-.71,5.93-2.51,8.49-3.92l.27.82c-.41.26-1.38.87-2,1.33.18.58,3,6.31,5.33,10.72,2.53,4.74,5.79,10.26,6.17,10.73.46-.08,1.58-.42,2.27-.63l.56.75c-.85.21-7.95,3-9,3.47l-.21-.86c1.35-.63,2.7-1.32,3.4-1.73.22-1.17-1.5-6.09-3.19-9.26-.94.37-5.74,2.86-8.09,4.12l-1.47.79c-2.87,1.54-8.35,4.56-10.91,6.06.23.67,1.53,3.8,1.8,4.46l-.62.5c-.36-.82-2.34-4.68-3.3-6.47-.79-1.47-2.95-5.36-3.53-6.27l.78-.2c.47.71,2.18,3.2,2.7,3.93,2.59-1.27,8.25-4.21,11.09-5.73Z"/><path d="M458.46,164c-4.37,2-10,4.5-10.58,4.93.18.93.88,3,1.11,3.74l-.63.49c-.26-.77-1.76-4.3-2.69-6.38-.51-1.14-2-4.2-2.48-5.18l.77-.18c.29.55,1.61,2.7,2.06,3.35,1.47-.5,7.7-3.24,11-4.72l2-.88c1.11-.5,7.37-3.34,8.45-4-.16-.74-.89-3.07-1.1-3.74l.63-.49c.21.67,1.53,3.79,2.72,6.45.76,1.71,2.12,4.57,2.44,5.11l-.78.15c-.36-.64-1.37-2.17-2-3.32-.74.17-4.65,1.87-8.78,3.72Z"/><path d="M463.74,173.68c3.15-1.05,8.77-3,9.72-3.42a28.84,28.84,0,0,0-.74-3.88l.68-.38c.34,1.25,1.44,4.81,1.9,6.18s3.44,10.37,3.89,11c.46,0,1.84-.21,2.64-.37l.44.75a83.74,83.74,0,0,0-8.81,2.27V185a27.57,27.57,0,0,0,2.71-1.1c.77-1.65-.63-7.41-1.21-9.16-.55,0-6.86,2-9.49,2.83l-.77.26a49.18,49.18,0,0,0,3,7.23c.58,0,1.51-.12,2.23-.2l.34.7c-1.75.35-5.34,1.23-8,2l0-.81c.74-.24,1.91-.71,2.92-1.16.35-1.05-.83-5.44-1.49-7.44l-1.05.35c-2.91,1-9.08,3.12-10,3.62a35.73,35.73,0,0,0,.79,4l-.69.39c-.34-1.25-1.22-4.15-2-6.5-.66-2-1.61-4.6-2.08-5.8l.78-.11a36.16,36.16,0,0,0,1.72,3.55c.84-.16,6.58-2,10.47-3.27Z"/><path d="M469.84,200c-4.66,1-10.63,2.32-11.32,2.62,0,.94.23,3.13.31,3.87l-.72.34c-.09-.81-.82-4.55-1.3-6.77-.26-1.22-1-4.5-1.34-5.56l.79,0c.16.61,1,3,1.31,3.69,1.54-.17,8.17-1.56,11.68-2.31l2.12-.45c1.18-.26,7.87-1.73,9.06-2.13,0-.75-.23-3.17-.3-3.87l.71-.34c.07.69.71,4,1.31,6.84.39,1.82,1.13,4.89,1.33,5.48h-.79c-.23-.71-.89-2.4-1.31-3.66-.75,0-4.91.87-9.32,1.81Z"/><path d="M479.86,229.87a26.85,26.85,0,0,0,3-.57c1.52-.88,3.73-4.58,3.18-9.27-.79-6.61-6.09-10.22-11.76-9.55a13.38,13.38,0,0,0-11.48,15.09,17.49,17.49,0,0,0,3,8.38l-1.62-.32c-.79-.76-2.72-4.25-3.4-10a20.83,20.83,0,0,1,.62-8.44c1.76-5,5.57-8.3,10.23-8.85a12.89,12.89,0,0,1,11.55,4.45,18,18,0,0,1,4.31,10.47,33.89,33.89,0,0,1,0,7.71c.5.16,2.87.32,3.32.38l.28.81a91.32,91.32,0,0,0-11.32.54Z"/><path d="M463.47,250.34a29.24,29.24,0,0,0,.59,3.72c1.91-.7,9.69-3.45,10.75-4.06,0-1.3-.39-7.16-.63-8.52a85.91,85.91,0,0,0-10.38-2.41,22.45,22.45,0,0,0-.47,3.19l-.77.16c.06-1.15.07-4.51.05-5.58s-.13-3.43-.22-4.28l.78.1a28.5,28.5,0,0,0,.57,3.16c2.35,1.29,22.34,8.29,23.75,8.78a22.29,22.29,0,0,0,.43-2.92l.78-.05c-.06,1.11-.08,4.17-.07,4.8,0,1.55.17,5.24.26,6.31l-.78-.09a19.32,19.32,0,0,0-.53-2.8c-1.61.47-7.37,2.6-11.23,4.07a128.3,128.3,0,0,0-12.2,5.24c-.21,1.07-.34,2.15-.46,3.26l-.78.12c.07-.45.08-4.18,0-6.13,0-1.07-.16-5.25-.25-6.24Zm23.42-4.58v-.07c-3.31-1.09-9.74-3.38-11-3.73v7.76C478.34,248.86,484.87,246.42,486.89,245.76Z"/><path d="M477.72,269.58c2.72,0,8.15-.11,9-.22,0-5.87-1-8.52-1.58-9.5a25.6,25.6,0,0,0-3.45-.73l-.23-.84c1.77.14,6.36.56,9.26.52l-.15.84c-.47,0-1.61.12-2.38.23-.11.59-.34,6.91-.33,11.86,0,5.33.3,11.68.41,12.27.45.14,1.59.36,2.29.5l.14.92c-.84-.22-8.37-1-9.47-1.14l.21-.85c1.47.07,3,.1,3.79.06.73-.92,1.52-6,1.5-9.59-1-.1-6.35-.16-9-.15h-1.66c-3.23,0-9.43.11-12.37.23-.11.7-.43,4-.5,4.74l-.77.15c.07-.89.13-5.18.12-7.2,0-1.65-.09-6.06-.17-7.12l.77.18c.08.84.42,3.81.53,4.69,2.87.1,9.18.15,12.38.14Z"/><path d="M475.12,294.21c-4.69,0-10.73,0-11.45.13-.22.9-.45,3.07-.52,3.79l-.76.18c.07-.8.16-4.55.17-6.79,0-1.23-.05-4.56-.11-5.64l.75.15c0,.61.35,3.07.49,3.83,1.52.15,8.2.22,11.74.23l2.13,0c1.2,0,7.95,0,9.18-.14.15-.72.45-3.11.52-3.79L488,286c-.07.69-.16,4-.17,6.86,0,1.85,0,4.95.11,5.57l-.75-.19c-.07-.72-.35-2.49-.49-3.79-.72-.15-4.91-.21-9.36-.23Z"/><path d="M465.52,304.18a11.58,11.58,0,0,1,8.85-3.57c7.26,0,13.89,5.89,13.95,16,0,3.88-.58,7-2.9,10.17a11.43,11.43,0,0,1-9.06,4.49c-9,.05-14.82-6.73-14.87-15.75C461.47,311.83,462.06,307.62,465.52,304.18Zm8.13,22.64c7.77-.05,13.31-5.47,13.27-11.55,0-5-3.43-10.5-11-10.45-6.56,0-13,5.35-12.94,12.5C463,322.56,467.79,326.86,473.65,326.82Z"/><path d="M487.52,333.22c0,2,0,5.46.11,8.29-1.25.78-10.54,7.93-11.2,8.53-1,.93-8.15,6.59-9.15,7.74,4,.07,16.79.25,18.69-.45.16-.72.48-2.64.57-3.66l.77-.17c-.08.69-.22,4.62-.24,5.42s0,3.81.07,4.58l-.76-.16c-.07-.47-.33-1.79-.46-2.77-1.41-.46-6.53-.73-7.7-.82-1.7-.14-17-.7-18.41-.94,1-1.07,12.95-10.94,13.91-11.76.55-.5,9.1-7.26,10.5-8.43-.72-.12-19.81,0-21.12.43a38.41,38.41,0,0,0-.58,4l-.77.09c.09-.65.22-4.43.24-5.37s0-3.89-.06-5l.76.12a23,23,0,0,0,.46,3c1.52.64,21.9,1.39,23.09,1.42a31.9,31.9,0,0,0,.51-4Z"/><path d="M277.7,375.09V409.5H275q-4.89-14.12-14.68-21.45a34.88,34.88,0,0,0-21.4-7.35q-11.1,0-18.48,6.16T210,404a84,84,0,0,0-3.06,22.6,81.48,81.48,0,0,0,3.36,24.62q3.36,10.59,10.84,15.55a31.44,31.44,0,0,0,17.79,5,36.83,36.83,0,0,0,7.34-.76,52.2,52.2,0,0,0,7.7-2.19v-20.3c0-3.84-.26-6.33-.8-7.45a7.36,7.36,0,0,0-3.32-3.06,12.67,12.67,0,0,0-6.1-1.37h-2.56V434h48.13v2.66q-5.47.36-7.63,1.48a7.4,7.4,0,0,0-3.32,3.7c-.44.91-.66,3.15-.66,6.7v20.3a98.9,98.9,0,0,1-19.76,6.3,105.15,105.15,0,0,1-21.29,2.12q-14.1,0-23.4-3.78a58.73,58.73,0,0,1-16.44-9.93,47.2,47.2,0,0,1-11.14-13.86,47.86,47.86,0,0,1-5.11-22.24q0-22,15.7-37.22T235.78,375a69.63,69.63,0,0,1,13.29,1.15,68.34,68.34,0,0,1,10.41,3.27q7.18,2.7,8.51,2.7a5.81,5.81,0,0,0,3.8-1.47c1.16-1,2.24-2.85,3.21-5.58Z"/><path d="M384.24,374.88v33.66h-2.82q-3.18-13.17-11.85-20.19a30.39,30.39,0,0,0-19.65-7,29.21,29.21,0,0,0-16.83,5.23,30.53,30.53,0,0,0-11.19,13.67,61.34,61.34,0,0,0-4.55,24.06A79.66,79.66,0,0,0,320.67,448q3.31,10.71,10.4,16.19t18.35,5.47a36.14,36.14,0,0,0,16.94-4q7.69-4,16.21-13.83v8.38a53.29,53.29,0,0,1-17.15,12.35,52.37,52.37,0,0,1-20.84,3.84q-15.68,0-27.85-6.23A44.3,44.3,0,0,1,298,452.29a49.69,49.69,0,0,1-6.61-24.84,52.9,52.9,0,0,1,27.13-45.69,53.89,53.89,0,0,1,26.47-6.88,60.56,60.56,0,0,1,21.82,4.44c4.43,1.72,7.24,2.58,8.45,2.58a5.53,5.53,0,0,0,4-1.68,9.12,9.12,0,0,0,2.2-5.34Z"/><path d="M486.7,374.88v33.66h-2.82Q480.7,395.37,472,388.35a30.39,30.39,0,0,0-19.65-7,29.21,29.21,0,0,0-16.83,5.23,30.53,30.53,0,0,0-11.19,13.67,61.34,61.34,0,0,0-4.55,24.06A79.66,79.66,0,0,0,423.13,448q3.31,10.71,10.4,16.19t18.35,5.47a36.14,36.14,0,0,0,16.94-4q7.69-4,16.21-13.83v8.38a53.39,53.39,0,0,1-17.15,12.35A52.37,52.37,0,0,1,447,476.43q-15.68,0-27.85-6.23a44.3,44.3,0,0,1-18.78-17.91,49.69,49.69,0,0,1-6.61-24.84,52.9,52.9,0,0,1,27.13-45.69,53.89,53.89,0,0,1,26.47-6.88,60.56,60.56,0,0,1,21.82,4.44q6.63,2.58,8.45,2.58a5.49,5.49,0,0,0,4-1.68,9.06,9.06,0,0,0,2.21-5.34Z"/><path class="cls-1" d="M205.18,493.41c-26.27,0-46.84-10.52-72-25.31-11.16-6.56-32.73-22.29-47.09-35.21-37.41-33.67-56-88.78-56-88.78v216h455.7V493.41Z"/><path class="cls-2" d="M293.69,227c-56.43,52.14-102.4,121.46-102.4,121.46s-3.47-25.44-26.17-51.18-56.05,1.13-69.28,14.36c34.68,7.86,62.92,82.22,74.36,113.68a1.73,1.73,0,0,0,.72.51,59.86,59.86,0,0,1,18.83-43.57c11.48-11.1,25.78-17.13,42.56-18,2.68-6.08,25.68-56.62,72.22-110.59C385,160.46,437.17,152.8,437.17,152.8,403.38,149.05,337.48,186.59,293.69,227Z"/><path d="M190.73,470.81a57.4,57.4,0,0,1-13.53-16.89,58.41,58.41,0,0,1-6.29-27c0-.59,0-1.19,0-1.78l-.74-.23S128,405.6,97.27,356.62c-38.15-59.82-29.92-117-26.7-132.49.56-2.65,1.05-6.49,1.05-6.49a20.37,20.37,0,0,1-20.71,8.49c-10.61-1.91-15.73-11.69-15.73-11.69s-1.11,3.6-1.5,5.87C30.93,236.17,22.6,304.07,65.05,375.7c49.51,83.54,130.53,99.61,130.53,99.61l.35-.46C194.13,473.58,192.39,472.24,190.73,470.81Z"/><path class="cls-3" d="M64.93,545.68H61.07V508.82h3.86Z"/><path class="cls-3" d="M72,544.18v-5.09a8.5,8.5,0,0,0,1.87,1.39,14.34,14.34,0,0,0,2.29,1,16.53,16.53,0,0,0,2.43.66,12.43,12.43,0,0,0,2.24.23,8.08,8.08,0,0,0,5.32-1.48,5.23,5.23,0,0,0,1.75-4.25,5.48,5.48,0,0,0-.58-2.6,7.28,7.28,0,0,0-1.62-2,16.11,16.11,0,0,0-2.44-1.74c-.94-.56-2-1.15-3-1.76s-2.21-1.31-3.21-2a14.48,14.48,0,0,1-2.59-2.21,9.22,9.22,0,0,1-1.73-2.74,9.36,9.36,0,0,1-.64-3.59,9,9,0,0,1,3.58-7.45,11.13,11.13,0,0,1,3.67-1.8,15.13,15.13,0,0,1,4.18-.59c3.25,0,5.61.44,7.1,1.31v4.86a11.86,11.86,0,0,0-7.49-2.26,11.4,11.4,0,0,0-2.52.29,6.71,6.71,0,0,0-2.25,1,5.31,5.31,0,0,0-1.61,1.72,5,5,0,0,0-.62,2.57,5.87,5.87,0,0,0,.47,2.44A6,6,0,0,0,78,522a14,14,0,0,0,2.24,1.64c.88.53,1.89,1.12,3,1.75s2.3,1.34,3.35,2.06a15.45,15.45,0,0,1,2.78,2.39,10.58,10.58,0,0,1,1.89,2.9,8.94,8.94,0,0,1,.7,3.65A10.21,10.21,0,0,1,91,541a8.51,8.51,0,0,1-2.57,3.08,10.7,10.7,0,0,1-3.73,1.7,17.91,17.91,0,0,1-4.45.53,17.1,17.1,0,0,1-1.93-.14,22.09,22.09,0,0,1-2.34-.41,16.57,16.57,0,0,1-2.26-.67A6.77,6.77,0,0,1,72,544.18Z"/><path class="cls-3" d="M111.81,546.29a13.74,13.74,0,0,1-11.21-5.16q-4.21-5.18-4.21-13.45,0-8.89,4.29-14.19a14.25,14.25,0,0,1,11.68-5.29,13.42,13.42,0,0,1,11,5.14q4.17,5.14,4.17,13.44,0,9-4.27,14.27A14,14,0,0,1,111.81,546.29Zm.28-34.18a10.15,10.15,0,0,0-8.43,4.19q-3.22,4.19-3.23,11t3.15,11a9.87,9.87,0,0,0,8.23,4.15,10.29,10.29,0,0,0,8.54-4q3.12-4,3.12-11.08,0-7.29-3-11.28A9.91,9.91,0,0,0,112.09,512.11Z"/><path class="cls-3" d="M159.15,545.68h-3.76V513.83a9.12,9.12,0,0,1-1.27,1.12,21.14,21.14,0,0,1-1.88,1.24c-.7.41-1.43.8-2.21,1.16a15,15,0,0,1-2.26.85v-4.27a20.4,20.4,0,0,0,2.63-1c.92-.44,1.84-.92,2.73-1.46s1.74-1.11,2.54-1.7a20.14,20.14,0,0,0,2.06-1.74h1.42Z"/><path class="cls-3" d="M187.38,508.82v24.34h4.23V537h-4.23v8.67h-3.72V537H168.2v-3.65c1.43-1.81,2.89-3.75,4.36-5.82s2.87-4.16,4.21-6.28,2.58-4.25,3.72-6.36a61.79,61.79,0,0,0,2.88-6.08Zm-14.94,24.34h11.22v-18c-1.14,2.25-2.23,4.25-3.25,6s-2,3.37-2.93,4.8-1.81,2.75-2.65,3.91Z"/><path class="cls-3" d="M216.62,527.09a40.13,40.13,0,0,1-.75,8.2,20.36,20.36,0,0,1-2.15,6,10.37,10.37,0,0,1-3.47,3.73,8.77,8.77,0,0,1-4.67,1.27,8.18,8.18,0,0,1-4.42-1.22,9.93,9.93,0,0,1-3.27-3.56,19.64,19.64,0,0,1-2-5.75,39.59,39.59,0,0,1-.68-7.8,45,45,0,0,1,.72-8.53,21,21,0,0,1,2.12-6.21,10,10,0,0,1,3.48-3.78,8.9,8.9,0,0,1,4.76-1.27Q216.62,508.2,216.62,527.09Zm-3.86.41q0-15.72-6.67-15.73-7.05,0-7.05,16,0,14.93,6.91,14.93T212.76,527.5Z"/><path class="cls-3" d="M242,527.09a40.13,40.13,0,0,1-.75,8.2,20.64,20.64,0,0,1-2.16,6,10.34,10.34,0,0,1-3.46,3.73,8.77,8.77,0,0,1-4.67,1.27,8.13,8.13,0,0,1-4.42-1.22,9.93,9.93,0,0,1-3.27-3.56,19.35,19.35,0,0,1-2-5.75,39.54,39.54,0,0,1-.69-7.8,45,45,0,0,1,.72-8.53,21,21,0,0,1,2.13-6.21,10.05,10.05,0,0,1,3.47-3.78,9,9,0,0,1,4.77-1.27Q242,508.2,242,527.09Zm-3.86.41q0-15.72-6.68-15.73-7,0-7,16,0,14.93,6.9,14.93T238.1,527.5Z"/><path class="cls-3" d="M260.5,545.68h-3.77V513.83a9.12,9.12,0,0,1-1.27,1.12,21.14,21.14,0,0,1-1.88,1.24c-.7.41-1.43.8-2.2,1.16a15.83,15.83,0,0,1-2.26.85v-4.27a20.3,20.3,0,0,0,2.62-1,29.87,29.87,0,0,0,2.73-1.46c.9-.54,1.74-1.11,2.54-1.7a20.32,20.32,0,0,0,2.07-1.74h1.42Z"/><path class="cls-3" d="M308.81,544.13a17.6,17.6,0,0,1-9.09,2.16,13.94,13.94,0,0,1-11.25-5.06q-4.22-5.07-4.22-13.29,0-8.84,4.75-14.29a15.31,15.31,0,0,1,12.05-5.45,17.53,17.53,0,0,1,7.76,1.52v4.6a14.39,14.39,0,0,0-7.81-2.21,11.38,11.38,0,0,0-9.19,4.24q-3.53,4.24-3.52,11.33,0,6.74,3.29,10.73a10.65,10.65,0,0,0,8.64,4,14.87,14.87,0,0,0,8.59-2.47Z"/><path class="cls-3" d="M333.89,533.57H317.3a10.53,10.53,0,0,0,2.11,6.78,6.87,6.87,0,0,0,5.55,2.39,10.78,10.78,0,0,0,7.3-2.93v4a12.56,12.56,0,0,1-8.19,2.52,9.45,9.45,0,0,1-7.83-3.58q-2.83-3.59-2.84-10.09a15.43,15.43,0,0,1,3.11-10,9.52,9.52,0,0,1,7.72-3.87,8.43,8.43,0,0,1,7.14,3.34q2.52,3.34,2.52,9.28ZM330,530a9.24,9.24,0,0,0-1.58-5.68,5.08,5.08,0,0,0-4.3-2,5.79,5.79,0,0,0-4.52,2.13,10.2,10.2,0,0,0-2.3,5.58Z"/><path class="cls-3" d="M351.84,523.62a4.29,4.29,0,0,0-2.85-.85,4.71,4.71,0,0,0-4,2.55,12.82,12.82,0,0,0-1.61,6.94v13.42h-3.77V519.35h3.77v5.43h.09a9.3,9.3,0,0,1,2.45-4.33,5.27,5.27,0,0,1,3.7-1.56,5.54,5.54,0,0,1,2.25.36Z"/><path class="cls-3" d="M368.18,545.42a6.62,6.62,0,0,1-3.52.82q-6.17,0-6.17-7.71V523h-4v-3.6h4v-6.42l3.76-1.36v7.78h5.93V523h-5.93v14.83a6.67,6.67,0,0,0,.81,3.78,3,3,0,0,0,2.66,1.13,3.7,3.7,0,0,0,2.46-.87Z"/><path class="cls-3" d="M375.13,512.67a2.23,2.23,0,0,1-1.72-.77,2.77,2.77,0,0,1-.71-1.95,2.84,2.84,0,0,1,.71-2,2.24,2.24,0,0,1,1.72-.78,2.32,2.32,0,0,1,1.76.78,3,3,0,0,1,0,3.9A2.3,2.3,0,0,1,375.13,512.67Zm1.84,33H373.2V519.35H377Z"/><path class="cls-3" d="M396.2,510.41a4.63,4.63,0,0,0-2.5-.69q-3.94,0-3.95,5.57v4.06h5.51V523h-5.51v22.73H386V523h-4v-3.6h4v-4.26a9.5,9.5,0,0,1,2.13-6.54,6.83,6.83,0,0,1,5.33-2.41,6.66,6.66,0,0,1,2.73.47Z"/><path class="cls-3" d="M401.22,512.67a2.25,2.25,0,0,1-1.72-.77,2.77,2.77,0,0,1-.71-1.95,2.84,2.84,0,0,1,.71-2,2.26,2.26,0,0,1,1.72-.78A2.31,2.31,0,0,1,403,508a3,3,0,0,1,0,3.9A2.28,2.28,0,0,1,401.22,512.67Zm1.84,33h-3.77V519.35h3.77Z"/><path class="cls-3" d="M429.57,533.57H413a10.59,10.59,0,0,0,2.11,6.78,6.88,6.88,0,0,0,5.56,2.39,10.8,10.8,0,0,0,7.3-2.93v4a12.61,12.61,0,0,1-8.2,2.52,9.42,9.42,0,0,1-7.82-3.58q-2.85-3.59-2.85-10.09a15.49,15.49,0,0,1,3.11-10,9.54,9.54,0,0,1,7.72-3.87,8.41,8.41,0,0,1,7.14,3.34c1.68,2.23,2.53,5.32,2.53,9.28ZM425.71,530a9.31,9.31,0,0,0-1.57-5.68,5.11,5.11,0,0,0-4.31-2,5.79,5.79,0,0,0-4.52,2.13A10.19,10.19,0,0,0,413,530Z"/><path class="cls-3" d="M455.31,545.68h-3.76V541.2h-.09a8.57,8.57,0,0,1-8.08,5.09,8.43,8.43,0,0,1-7.08-3.53q-2.66-3.54-2.65-9.63,0-6.52,2.94-10.46a9.27,9.27,0,0,1,7.82-3.93,7.39,7.39,0,0,1,7,4.27h.09v-16.3h3.76Zm-3.76-11.91v-3.88a8,8,0,0,0-1.88-5.39,6,6,0,0,0-4.78-2.21,6.25,6.25,0,0,0-5.41,2.82c-1.32,1.89-2,4.49-2,7.82a12.11,12.11,0,0,0,1.9,7.18,5.92,5.92,0,0,0,5.08,2.63,6.14,6.14,0,0,0,5.11-2.54A10.22,10.22,0,0,0,451.55,533.77Z"/></svg>