<svg xmlns="http://www.w3.org/2000/svg" width="89" height="85" fill="none"><g stroke="#fff" stroke-width="6.184" filter="url(#a)"><path d="M8 70.808V6.304C8 5.03 9.09 4 10.433 4h68.134C79.91 4 81 5.031 81 6.304v64.504c0 1.273-1.09 2.304-2.433 2.304H10.433C9.09 73.112 8 72.08 8 70.808Z"/><path stroke-linecap="round" stroke-linejoin="round" d="M56.667 25.118c-2.778-2.63-7.67-4.46-12.167-4.574m0 0c-5.35-.137-10.139 2.155-10.139 8.413 0 11.519 22.306 5.76 22.306 17.278 0 6.57-5.937 9.392-12.167 9.18m0-34.871v-6.945M32.334 50.075c2.613 3.299 7.473 5.18 12.166 5.34m0 0v8.098"/></g><defs><filter id="a" width="87.184" height="83.296" x=".908" y=".908" color-interpolation-filters="sRGB" filterUnits="userSpaceOnUse"><feFlood flood-opacity="0" result="BackgroundImageFix"/><feColorMatrix in="SourceAlpha" result="hardAlpha" values="0 0 0 0 0 0 0 0 0 0 0 0 0 0 0 0 0 0 127 0"/><feOffset dy="4"/><feGaussianBlur stdDeviation="2"/><feComposite in2="hardAlpha" operator="out"/><feColorMatrix values="0 0 0 0 0 0 0 0 0 0 0 0 0 0 0 0 0 0 0.25 0"/><feBlend in2="BackgroundImageFix" result="effect1_dropShadow_629_545"/><feBlend in="SourceGraphic" in2="effect1_dropShadow_629_545" result="shape"/></filter></defs></svg>
