<svg xmlns="http://www.w3.org/2000/svg" width="63" height="49" fill="none"><path stroke="#0094DB" stroke-linecap="round" stroke-width="4.33" d="M2.854 46.22v-2.542c0-9.829 8.245-17.797 18.416-17.797 10.17 0 18.416 7.968 18.416 17.797v2.542"/><path stroke="#0094DB" stroke-linecap="round" stroke-width="4.33" d="M34.424 30.966c0-7.02 5.89-12.712 13.154-12.712 7.265 0 13.155 5.692 13.155 12.712v1.271"/><path stroke="#0094DB" stroke-linecap="round" stroke-linejoin="round" stroke-width="4.33" d="M21.27 25.881c5.811 0 10.523-4.553 10.523-10.169 0-5.617-4.712-10.17-10.523-10.17-5.812 0-10.524 4.553-10.524 10.17 0 5.616 4.712 10.17 10.524 10.17ZM47.578 18.254c4.36 0 7.893-3.415 7.893-7.627S51.938 3 47.578 3c-4.359 0-7.892 3.415-7.892 7.627s3.533 7.627 7.892 7.627Z"/></svg>
